<svg viewBox="0 0 2396 1538" xmlns="http://www.w3.org/2000/svg"><g stroke-width="1.51" fill="none" fill-rule="evenodd"><path stroke="#5F5F5F" fill="#5F5F5F" d="M637 1493l-570 4 951 6z"/><path stroke="#646464" fill="#646464" d="M266 3l501 17 472-3z"/><path stroke="#707070" fill="#707070" d="M1308 1478l-290 25 557 10z"/><path stroke="#646464" fill="#646464" d="M1495 33l226 9 168-9z"/><path stroke="#626262" fill="#626262" d="M1717 1495l-142 18 318-17z"/><path stroke="#727272" fill="#727272" d="M266 3l973 14 783 8z"/><path stroke="#606060" fill="#606060" d="M1495 33h394l133-8z"/><path stroke="#666" fill="#666" d="M1239 17l256 16 527-8z"/><path stroke="#5D5D5D" fill="#5D5D5D" d="M1893 1496l-318 17 505 5z"/><path stroke="#545454" fill="#545454" d="M2285 35l-52 53 89 110z"/><path stroke="#686868" fill="#686868" d="M2343 444l-31 95 48 123z"/><path stroke="#5F5F5F" fill="#5F5F5F" d="M2305 1098l-45 33 103 143z"/><path stroke="#727272" fill="#727272" d="M2360 662l-31 122 35 62z"/><path stroke="#575757" fill="#575757" d="M2080 1518l-505-5 792 20z"/><path stroke="#515151" fill="#515151" d="M2165 1483l-85 35 287 15z"/><path stroke="#535353" fill="#535353" d="M2363 1274l-66 53 70 206z"/><path stroke="#525252" fill="#525252" d="M2297 1327l-132 156 202 50z"/><path stroke="#676767" fill="#676767" d="M2206 1026l99 72 77-152z"/><path stroke="#6D6D6D" fill="#6D6D6D" d="M2364 846l-128 24 146 76z"/><path stroke="#616161" fill="#616161" d="M2305 1098l58 176 19-328z"/><path stroke="#6F6F6F" fill="#6F6F6F" d="M2360 662l4 184 18 100z"/><path stroke="#595959" fill="#595959" d="M2363 1274l4 259 15-587z"/><path stroke="#555" fill="#555" d="M2285 35l37 163 69 85z"/><path stroke="#5B5B5B" fill="#5B5B5B" d="M2322 198l-138 96 207-11z"/><path stroke="#606060" fill="#606060" d="M2186 371l157 73 48-161z"/><path stroke="#5F5F5F" fill="#5F5F5F" d="M2184 294l2 77 205-88z"/><path stroke="#636363" fill="#636363" d="M2343 444l17 218 31-379z"/><path stroke="#6B6B6B" fill="#6B6B6B" d="M2360 662l22 284 9-663z"/><path stroke="#6D6D6D" fill="#6D6D6D" d="M2312 539l-63 96 111 27z"/><path stroke="#5C5C5C" fill="#5C5C5C" d="M2260 1131v174l103-31z"/><path stroke="#6C6C6C" fill="#6C6C6C" d="M2236 870l-30 156 176-80z"/><path stroke="#5B5B5B" fill="#5B5B5B" d="M2235 198l-51 96 138-96z"/><path stroke="#717171" fill="#717171" d="M2249 635l80 149 31-122z"/><path stroke="#707070" fill="#707070" d="M2329 784l-93 86 128-24z"/><path stroke="#585858" fill="#585858" d="M2260 1305l37 22 66-53z"/><path stroke="#5E5E5E" fill="#5E5E5E" d="M2260 1131l-80 105 80 69z"/><path stroke="#575757" fill="#575757" d="M2233 88l2 110h87z"/><path stroke="#737373" fill="#737373" d="M2249 635l-83 72 163 77z"/><path stroke="#676767" fill="#676767" d="M2237 505l75 34 31-95z"/><path stroke="#666" fill="#666" d="M2186 371l51 134 106-61z"/><path stroke="#575757" fill="#575757" d="M2260 1305l-95 178 132-156z"/><path stroke="#757575" fill="#757575" d="M2166 707l70 163 93-86z"/><path stroke="#565656" fill="#565656" d="M2022 25l37 39 226-29z"/><path stroke="#6B6B6B" fill="#6B6B6B" d="M2237 505l12 130 63-96z"/><path stroke="#656565" fill="#656565" d="M2206 1026l54 105 45-33z"/><path stroke="#545454" fill="#545454" d="M2059 64l174 24 52-53z"/><path stroke="#777" fill="#777" d="M2166 707l-51 85 121 78z"/><path stroke="#595959" fill="#595959" d="M2114 1319l51 164 95-178z"/><path stroke="#585858" fill="#585858" d="M2233 88l-89 81 91 29z"/><path stroke="#6F6F6F" fill="#6F6F6F" d="M2075 933l131 93 30-156z"/><path stroke="#686868" fill="#686868" d="M2186 371l-78 64 129 70z"/><path stroke="#6F6F6F" fill="#6F6F6F" d="M2237 505l-138 88 150 42z"/><path stroke="#676767" fill="#676767" d="M2206 1026l-121 124 175-19z"/><path stroke="#636363" fill="#636363" d="M2085 1150l95 86 80-105z"/><path stroke="#5D5D5D" fill="#5D5D5D" d="M2180 1236l-66 83 146-14z"/><path stroke="#6F6F6F" fill="#6F6F6F" d="M2093 553l6 40 138-88z"/><path stroke="#737373" fill="#737373" d="M2099 593l67 114 83-72z"/><path stroke="#5C5C5C" fill="#5C5C5C" d="M2144 169l40 125 51-96z"/><path stroke="#6C6C6C" fill="#6C6C6C" d="M2108 435l-15 118 144-48z"/><path stroke="#747474" fill="#747474" d="M2115 792l-40 141 161-63z"/><path stroke="#6A6A6A" fill="#6A6A6A" d="M2079 1035l6 115 121-124z"/><path stroke="#585858" fill="#585858" d="M2059 64l85 105 89-81z"/><path stroke="#636363" fill="#636363" d="M2085 1150l19 76 76 10z"/><path stroke="#6E6E6E" fill="#6E6E6E" d="M2075 933l4 102 127-9z"/><path stroke="#585858" fill="#585858" d="M2114 1319l-34 199 85-35z"/><path stroke="#606060" fill="#606060" d="M2104 1226l10 93 66-83z"/><path stroke="#5F5F5F" fill="#5F5F5F" d="M2144 169l-89 97 129 28z"/><path stroke="#626262" fill="#626262" d="M2184 294l-129-28 131 105z"/><path stroke="#666" fill="#666" d="M2055 266l53 169 78-64z"/><path stroke="#676767" fill="#676767" d="M2055 266l-55 86 108 83z"/><path stroke="#7A7A7A" fill="#7A7A7A" d="M2014 723l101 69 51-85z"/><path stroke="#777" fill="#777" d="M2099 593l-85 130 152-16z"/><path stroke="#666" fill="#666" d="M2024 284l-24 68 55-86z"/><path stroke="#5A5A5A" fill="#5A5A5A" d="M1957 1468l123 50 34-199z"/><path stroke="#5D5D5D" fill="#5D5D5D" d="M2059 64l-4 202 89-97z"/><path stroke="#606060" fill="#606060" d="M1937 1341l20 127 52-181zM1921 175l134 91 4-202z"/><path stroke="#707070" fill="#707070" d="M2075 933l-49 89 53 13z"/><path stroke="#6B6B6B" fill="#6B6B6B" d="M2079 1035l-88 80 94 35z"/><path stroke="#787878" fill="#787878" d="M1977 609l37 114 85-130z"/><path stroke="#6E6E6E" fill="#6E6E6E" d="M1989 471l104 82 15-118z"/><path stroke="#5F5F5F" fill="#5F5F5F" d="M2009 1287l-52 181 157-149z"/><path stroke="#616161" fill="#616161" d="M2104 1226l-95 61 105 32z"/><path stroke="#767676" fill="#767676" d="M1997 906l78 27 40-141z"/><path stroke="#7B7B7B" fill="#7B7B7B" d="M2014 723l-17 183 118-114z"/><path stroke="#6B6B6B" fill="#6B6B6B" d="M2000 352l-11 119 119-36z"/><path stroke="#595959" fill="#595959" d="M1957 1468l-64 28 187 22z"/><path stroke="#646464" fill="#646464" d="M2085 1150l-76 137 95-61z"/><path stroke="#6E6E6E" fill="#6E6E6E" d="M2026 1022l-35 93 88-80z"/><path stroke="#686868" fill="#686868" d="M1991 1115l18 172 76-137z"/><path stroke="#747474" fill="#747474" d="M2093 553l-116 56 122-16z"/><path stroke="#6E6E6E" fill="#6E6E6E" d="M767 20l298 22 174-25z"/><path stroke="#737373" fill="#737373" d="M1989 471l-12 138 116-56z"/><path stroke="#646464" fill="#646464" d="M1921 175l103 109 31-18z"/><path stroke="#737373" fill="#737373" d="M1997 906l29 116 49-89z"/><path stroke="#7D7D7D" fill="#7D7D7D" d="M1874 850l123 56 17-183z"/><path stroke="#818181" fill="#818181" d="M1903 733l-29 117 140-127z"/><path stroke="#5C5C5C" fill="#5C5C5C" d="M2022 25l-101 150 138-111z"/><path stroke="#686868" fill="#686868" d="M1991 1115l-116 135 134 37z"/><path stroke="#5F5F5F" fill="#5F5F5F" d="M1877 105l44 70 101-150z"/><path stroke="#7D7D7D" fill="#7D7D7D" d="M1882 662l21 71 74-124z"/><path stroke="#7C7C7C" fill="#7C7C7C" d="M1977 609l-74 124 111-10z"/><path stroke="#5C5C5C" fill="#5C5C5C" d="M1889 33l-12 72 145-80z"/><path stroke="#757575" fill="#757575" d="M1997 906l-148 84 177 32z"/><path stroke="#717171" fill="#717171" d="M1849 990l142 125 35-93z"/><path stroke="#6E6E6E" fill="#6E6E6E" d="M1876 416l113 55 11-119z"/><path stroke="#696969" fill="#696969" d="M1816 285l184 67 24-68z"/><path stroke="#676767" fill="#676767" d="M1921 175l-105 110 208-1z"/><path stroke="#757575" fill="#757575" d="M1829 536l148 73 12-138z"/><path stroke="#6C6C6C" fill="#6C6C6C" d="M1838 1172l37 78 116-135z"/><path stroke="#656565" fill="#656565" d="M1875 1250l62 91 72-54z"/><path stroke="#7A7A7A" fill="#7A7A7A" d="M1874 850l-25 140 148-84z"/><path stroke="#6C6C6C" fill="#6C6C6C" d="M1816 285l60 131 124-64z"/><path stroke="#737373" fill="#737373" d="M1876 416l-47 120 160-65z"/><path stroke="#717171" fill="#717171" d="M1849 990l-11 182 153-57z"/><path stroke="#5E5E5E" fill="#5E5E5E" d="M1937 1341l-44 155 64-28z"/><path stroke="#7A7A7A" fill="#7A7A7A" d="M1829 536l53 126 95-53z"/><path stroke="#626262" fill="#626262" d="M1833 1308l60 188 44-155z"/><path stroke="#666" fill="#666" d="M1875 1250l-42 58 104 33z"/><path stroke="#626262" fill="#626262" d="M1833 1308l-116 187 176 1z"/><path stroke="#656565" fill="#656565" d="M1877 105l-124 108 168-38z"/><path stroke="#686868" fill="#686868" d="M1753 213l63 72 105-110z"/><path stroke="#7B7B7B" fill="#7B7B7B" d="M1768 971l81 19 25-140z"/><path stroke="#828282" fill="#828282" d="M1882 662l-130 97 151-26z"/><path stroke="#838383" fill="#838383" d="M1752 759l122 91 29-117z"/><path stroke="#676767" fill="#676767" d="M1713 1326l4 169 116-187z"/><path stroke="#767676" fill="#767676" d="M1768 971l70 201 11-182z"/><path stroke="#6E6E6E" fill="#6E6E6E" d="M1816 285l-40 16 100 115z"/><path stroke="#7C7C7C" fill="#7C7C7C" d="M1829 536l-104 55 157 71z"/><path stroke="#606060" fill="#606060" d="M1721 42l156 63 12-72z"/><path stroke="#747474" fill="#747474" d="M1768 971l-77 187 147 14z"/><path stroke="#7F7F7F" fill="#7F7F7F" d="M1725 867l43 104 106-121z"/><path stroke="#818181" fill="#818181" d="M1725 591l27 168 130-97z"/><path stroke="#5C5C5C" fill="#5C5C5C" d="M266 3l177 28 324-11z"/><path stroke="#838383" fill="#838383" d="M1752 759l-27 108 149-17z"/><path stroke="#6D6D6D" fill="#6D6D6D" d="M1838 1172l-97 64 134 14z"/><path stroke="#767676" fill="#767676" d="M1683 447l146 89 47-120z"/><path stroke="#656565" fill="#656565" d="M1721 42l32 171 124-108z"/><path stroke="#727272" fill="#727272" d="M1776 301l-93 146 193-31z"/><path stroke="#6A6A6A" fill="#6A6A6A" d="M1741 1236l92 72 42-58z"/><path stroke="#7A7A7A" fill="#7A7A7A" d="M1683 447l11 71 135 18z"/><path stroke="#848484" fill="#848484" d="M1725 591l-56 70 83 98z"/><path stroke="#707070" fill="#707070" d="M1691 1158l50 78 97-64z"/><path stroke="#676767" fill="#676767" d="M1721 42l-59 62 91 109z"/><path stroke="#787878" fill="#787878" d="M1635 1093l56 65 77-187z"/><path stroke="#6B6B6B" fill="#6B6B6B" d="M1741 1236l-28 90 120-18z"/><path stroke="#7C7C7C" fill="#7C7C7C" d="M1694 518l31 73 104-55z"/><path stroke="#6C6C6C" fill="#6C6C6C" d="M1753 213l23 88 40-16z"/><path stroke="#676767" fill="#676767" d="M1495 33l122 43 104-34z"/><path stroke="#6E6E6E" fill="#6E6E6E" d="M1753 213l-125 72 148 16z"/><path stroke="#737373" fill="#737373" d="M1628 285l55 162 93-146z"/><path stroke="#878787" fill="#878787" d="M1648 759l77 108 27-108z"/><path stroke="gray" fill="gray" d="M1725 867l-143 94 186 10z"/><path stroke="#7D7D7D" fill="#7D7D7D" d="M1582 961l53 132 133-122z"/><path stroke="#696969" fill="#696969" d="M1713 1326l-131 18 135 151z"/><path stroke="#878787" fill="#878787" d="M1669 661l-21 98h104z"/><path stroke="#6C6C6C" fill="#6C6C6C" d="M1662 104l-34 181 125-72z"/><path stroke="#6F6F6F" fill="#6F6F6F" d="M1569 1223l144 103 28-90z"/><path stroke="#727272" fill="#727272" d="M1691 1158l-122 65 172 13z"/><path stroke="#6F6F6F" fill="#6F6F6F" d="M1569 1223l13 121 131-18z"/><path stroke="#686868" fill="#686868" d="M1582 1344l-7 169 142-18z"/><path stroke="#848484" fill="#848484" d="M1597 844l-15 117 143-94z"/><path stroke="#878787" fill="#878787" d="M1648 759l-51 85 128 23z"/><path stroke="#7E7E7E" fill="#7E7E7E" d="M1694 518l-79 6 110 67z"/><path stroke="#818181" fill="#818181" d="M1615 524l54 137 56-70z"/><path stroke="#666" fill="#666" d="M1617 76l45 28 59-62z"/><path stroke="#787878" fill="#787878" d="M1628 285l-63 159 118 3z"/><path stroke="#6E6E6E" fill="#6E6E6E" d="M1495 168l133 117 34-181z"/><path stroke="#7C7C7C" fill="#7C7C7C" d="M1683 447l-68 77 79-6z"/><path stroke="#767676" fill="#767676" d="M1635 1093l-66 130 122-65z"/><path stroke="#6B6B6B" fill="#6B6B6B" d="M1617 76l-122 92 167-64z"/><path stroke="#828282" fill="#828282" d="M1615 524l-72 28 126 109z"/><path stroke="#7C7C7C" fill="#7C7C7C" d="M1565 444l50 80 68-77z"/><path stroke="#6B6B6B" fill="#6B6B6B" d="M1460 1460l-152 18 267 35z"/><path stroke="#898989" fill="#898989" d="M1484 671l164 88 21-98z"/><path stroke="#878787" fill="#878787" d="M1543 552l-59 119 185-10z"/><path stroke="#727272" fill="#727272" d="M1569 1223l-42 70 55 51z"/><path stroke="#787878" fill="#787878" d="M1480 302l85 142 63-159z"/><path stroke="#7F7F7F" fill="#7F7F7F" d="M1582 961l-55 30 108 102z"/><path stroke="#8D8D8D" fill="#8D8D8D" d="M1484 671l51 129 113-41z"/><path stroke="#8A8A8A" fill="#8A8A8A" d="M1535 800l62 44 51-85z"/><path stroke="#6B6B6B" fill="#6B6B6B" d="M1460 1460l115 53 7-169z"/><path stroke="#747474" fill="#747474" d="M1495 168l-15 134 148-17z"/><path stroke="#7A7A7A" fill="#7A7A7A" d="M1441 1120l128 103 66-130z"/><path stroke="#7E7E7E" fill="#7E7E7E" d="M1527 991l-86 129 194-27z"/><path stroke="#878787" fill="#878787" d="M1465 878l117 83 15-117z"/><path stroke="gray" fill="gray" d="M1565 444l-22 108 72-28z"/><path stroke="#6C6C6C" fill="#6C6C6C" d="M1495 33v135l122-92z"/><path stroke="#7C7C7C" fill="#7C7C7C" d="M1480 302l-35 82 120 60z"/><path stroke="#6F6F6F" fill="#6F6F6F" d="M1454 1348l6 112 122-116z"/><path stroke="#8A8A8A" fill="#8A8A8A" d="M1535 800l-70 78 132-34z"/><path stroke="#6E6E6E" fill="#6E6E6E" d="M1405 1451l-97 27 152-18z"/><path stroke="#717171" fill="#717171" d="M1527 1293l-73 55 128-4z"/><path stroke="#858585" fill="#858585" d="M1465 878l62 113 55-30z"/><path stroke="#828282" fill="#828282" d="M1396 524l147 28 22-108z"/><path stroke="#818181" fill="#818181" d="M1445 384l-49 140 169-80z"/><path stroke="#787878" fill="#787878" d="M1441 1120l86 173 42-70z"/><path stroke="#737373" fill="#737373" d="M1123 1466l-105 37 290-25z"/><path stroke="#6E6E6E" fill="#6E6E6E" d="M1239 17l186 56 70-40z"/><path stroke="#6D6D6D" fill="#6D6D6D" d="M1425 73l70 95V33z"/><path stroke="#797979" fill="#797979" d="M1441 1120l-74 132 160 41z"/><path stroke="#909090" fill="#909090" d="M1484 671l-73 118 124 11z"/><path stroke="#878787" fill="#878787" d="M1396 524l88 147 59-119zM1465 878l-75 79 137 34z"/><path stroke="#838383" fill="#838383" d="M1390 957l51 163 86-129z"/><path stroke="#8E8E8E" fill="#8E8E8E" d="M1411 789l54 89 70-78z"/><path stroke="#757575" fill="#757575" d="M1367 1252l87 96 73-55z"/><path stroke="#595959" fill="#595959" d="M458 1463l-391 34 570-4z"/><path stroke="#848484" fill="#848484" d="M1390 957l-50 119 101 44z"/><path stroke="#818181" fill="#818181" d="M1422 386l-26 138 49-140z"/><path stroke="#717171" fill="#717171" d="M1454 1348l-66 32 72 80z"/><path stroke="#6F6F6F" fill="#6F6F6F" d="M1388 1380l17 71 55 9z"/><path stroke="#8B8B8B" fill="#8B8B8B" d="M1396 524l-37 97 125 50z"/><path stroke="#777" fill="#777" d="M1374 293l106 9 15-134z"/><path stroke="#757575" fill="#757575" d="M1389 146l-15 147 121-125z"/><path stroke="#717171" fill="#717171" d="M1425 73l-36 73 106 22z"/><path stroke="#8B8B8B" fill="#8B8B8B" d="M1410 875l-20 82 75-79z"/><path stroke="#8E8E8E" fill="#8E8E8E" d="M1411 789l-1 86 55 3z"/><path stroke="#7C7C7C" fill="#7C7C7C" d="M1422 386l23-2 35-82z"/><path stroke="#7C7C7C" fill="#7C7C7C" d="M1374 293l48 93 58-84z"/><path stroke="#8F8F8F" fill="#8F8F8F" d="M1359 621l52 168 73-118z"/><path stroke="#757575" fill="#757575" d="M1367 1252l21 128 66-32z"/><path stroke="#848484" fill="#848484" d="M1285 449l111 75 26-138z"/><path stroke="#7F7F7F" fill="#7F7F7F" d="M1340 1076l27 176 74-132z"/><path stroke="#7F7F7F" fill="#7F7F7F" d="M1340 1076l-32 177 59-1z"/><path stroke="#949494" fill="#949494" d="M1359 621l-76 186 128-18z"/><path stroke="#727272" fill="#727272" d="M1260 113l129 33 36-73z"/><path stroke="#727272" fill="#727272" d="M1239 17l21 96 165-40z"/><path stroke="#909090" fill="#909090" d="M1287 858l123 17 1-86z"/><path stroke="#939393" fill="#939393" d="M1283 807l4 51 124-69z"/><path stroke="gray" fill="gray" d="M1374 293l-89 156 137-63z"/><path stroke="#828282" fill="#828282" d="M1242 1150l66 103 32-177z"/><path stroke="#797979" fill="#797979" d="M1367 1252l-59 1 80 127z"/><path stroke="#777" fill="#777" d="M1260 113l114 180 15-147z"/><path stroke="#888" fill="#888" d="M1285 449l18 79 93-4z"/><path stroke="#727272" fill="#727272" d="M1388 1380l-80 22 97 49z"/><path stroke="#8D8D8D" fill="#8D8D8D" d="M1287 858l103 99 20-82z"/><path stroke="#8A8A8A" fill="#8A8A8A" d="M1303 528l56 93 37-97z"/><path stroke="#828282" fill="#828282" d="M1231 328l54 121 89-156z"/><path stroke="#767676" fill="#767676" d="M1308 1253v149l80-22z"/><path stroke="#717171" fill="#717171" d="M1308 1402v76l97-27z"/><path stroke="#929292" fill="#929292" d="M1275 600l8 207 76-186z"/><path stroke="#7C7C7C" fill="#7C7C7C" d="M1260 113l-29 215 143-35z"/><path stroke="#898989" fill="#898989" d="M1228 965l112 111 50-119z"/><path stroke="#8E8E8E" fill="#8E8E8E" d="M1287 858l-59 107 162-8z"/><path stroke="#8D8D8D" fill="#8D8D8D" d="M1303 528l-28 72 84 21z"/><path stroke="#969696" fill="#969696" d="M1167 684l10 67 98-151z"/><path stroke="#979797" fill="#979797" d="M1275 600l-98 151 106 56z"/><path stroke="#7B7B7B" fill="#7B7B7B" d="M1308 1253l-119 19 119 130z"/><path stroke="#888" fill="#888" d="M1228 965l14 185 98-74z"/><path stroke="#7F7F7F" fill="#7F7F7F" d="M1108 285l123 43 29-215z"/><path stroke="gray" fill="gray" d="M1242 1150l-53 122 119-19z"/><path stroke="#747474" fill="#747474" d="M1123 1466l185 12v-76z"/><path stroke="#797979" fill="#797979" d="M1189 1272l-66 194 185-64z"/><path stroke="#7A7A7A" fill="#7A7A7A" d="M1158 93l-50 192 152-172z"/><path stroke="#8A8A8A" fill="#8A8A8A" d="M1285 449l-146 32 164 47z"/><path stroke="#8D8D8D" fill="#8D8D8D" d="M1139 481l136 119 28-72z"/><path stroke="#797979" fill="#797979" d="M1096 135l12 150 50-192z"/><path stroke="#878787" fill="#878787" d="M1231 328l-92 153 146-32z"/><path stroke="#929292" fill="#929292" d="M1112 884l116 81 59-107z"/><path stroke="#969696" fill="#969696" d="M1283 807l-106-56 110 107z"/><path stroke="#979797" fill="#979797" d="M1177 751l-65 133 175-26z"/><path stroke="#797979" fill="#797979" d="M1090 1311l33 155 66-194z"/><path stroke="#888" fill="#888" d="M1228 965l-133 189 147-4z"/><path stroke="#757575" fill="#757575" d="M1239 17l-81 76 102 20z"/><path stroke="#919191" fill="#919191" d="M1139 481l28 203 108-84z"/><path stroke="#8A8A8A" fill="#8A8A8A" d="M1094 960l1 194 133-189z"/><path stroke="#8D8D8D" fill="#8D8D8D" d="M1139 481l-71 31 99 172z"/><path stroke="#848484" fill="#848484" d="M1053 365l43 88 135-125z"/><path stroke="#878787" fill="#878787" d="M1096 453l43 28 92-153z"/><path stroke="#838383" fill="#838383" d="M1095 1154l94 118 53-122z"/><path stroke="#818181" fill="#818181" d="M1108 285l-55 80 178-37z"/><path stroke="#747474" fill="#747474" d="M1065 42l93 51 81-76z"/><path stroke="#8F8F8F" fill="#8F8F8F" d="M1112 884l-18 76 134 5z"/><path stroke="#8E8E8E" fill="#8E8E8E" d="M1068 512l-47 96 146 76z"/><path stroke="#7E7E7E" fill="#7E7E7E" d="M1095 1154l-28 135 122-17z"/><path stroke="#7C7C7C" fill="#7C7C7C" d="M1067 1289l23 22 99-39z"/><path stroke="#575757" fill="#575757" d="M342 1454l-275 43 391-34z"/><path stroke="#969696" fill="#969696" d="M1167 684l-164 87 174-20z"/><path stroke="#959595" fill="#959595" d="M1003 771l109 113 65-133z"/><path stroke="#929292" fill="#929292" d="M1021 608l-18 163 164-87z"/><path stroke="#868686" fill="#868686" d="M1094 960l-129 63 130 131z"/><path stroke="#747474" fill="#747474" d="M1065 42l31 93 62-42z"/><path stroke="#6C6C6C" fill="#6C6C6C" d="M767 20l174 68 124-46z"/><path stroke="#828282" fill="#828282" d="M965 1023l16 112 114 19z"/><path stroke="#797979" fill="#797979" d="M1096 135l-101 62 113 88z"/><path stroke="#767676" fill="#767676" d="M1090 1311l-82 5 115 150z"/><path stroke="#727272" fill="#727272" d="M1008 1316l10 187 105-37z"/><path stroke="#888" fill="#888" d="M1096 453l-28 59 71-31z"/><path stroke="#909090" fill="#909090" d="M1003 771l19 138 90-25z"/><path stroke="#686868" fill="#686868" d="M780 1431l-143 62 381 10z"/><path stroke="#7E7E7E" fill="#7E7E7E" d="M981 1135l86 154 28-135z"/><path stroke="#8E8E8E" fill="#8E8E8E" d="M1022 909l72 51 18-76z"/><path stroke="#7E7E7E" fill="#7E7E7E" d="M966 314l87 51 55-80z"/><path stroke="#7B7B7B" fill="#7B7B7B" d="M995 197l-29 117 142-29z"/><path stroke="#8A8A8A" fill="#8A8A8A" d="M1022 909l-57 114 129-63z"/><path stroke="#717171" fill="#717171" d="M1065 42L941 88l155 47z"/><path stroke="#737373" fill="#737373" d="M941 88l54 109 101-62z"/><path stroke="#858585" fill="#858585" d="M926 409l142 103 28-59z"/><path stroke="#828282" fill="#828282" d="M1053 365l-127 44 170 44z"/><path stroke="#797979" fill="#797979" d="M1067 1289l-59 27 82-5z"/><path stroke="#7A7A7A" fill="#7A7A7A" d="M981 1135l27 181 59-27z"/><path stroke="#7A7A7A" fill="#7A7A7A" d="M981 1135l-98 74 125 107z"/><path stroke="#6B6B6B" fill="#6B6B6B" d="M888 1427l-108 4 238 72z"/><path stroke="#707070" fill="#707070" d="M1008 1316l-120 111 130 76z"/><path stroke="#8F8F8F" fill="#8F8F8F" d="M1003 771l-62 75 81 63z"/><path stroke="#888" fill="#888" d="M868 526l153 82 47-96z"/><path stroke="#838383" fill="#838383" d="M926 409l-58 117 200-14z"/><path stroke="#8E8E8E" fill="#8E8E8E" d="M900 639l103 132 18-163z"/><path stroke="#888" fill="#888" d="M928 948l37 75 57-114z"/><path stroke="#7E7E7E" fill="#7E7E7E" d="M966 314l-40 95 127-44z"/><path stroke="#717171" fill="#717171" d="M941 88l-32 47 86 62z"/><path stroke="#909090" fill="#909090" d="M900 639l22 149 81-17z"/><path stroke="#888" fill="#888" d="M868 526l32 113 121-31z"/><path stroke="#8B8B8B" fill="#8B8B8B" d="M941 846l-13 102 94-39z"/><path stroke="#707070" fill="#707070" d="M867 1404l21 23 120-111z"/><path stroke="gray" fill="gray" d="M965 1023l-83 70 99 42z"/><path stroke="#909090" fill="#909090" d="M922 788l19 58 62-75z"/><path stroke="#757575" fill="#757575" d="M883 1209l-66 75 191 32z"/><path stroke="#727272" fill="#727272" d="M817 1284l50 120 141-88z"/><path stroke="#767676" fill="#767676" d="M909 135l-54 199 111-20z"/><path stroke="#757575" fill="#757575" d="M909 135l57 179 29-117z"/><path stroke="#7C7C7C" fill="#7C7C7C" d="M882 1093l1 116 98-74z"/><path stroke="#616161" fill="#616161" d="M443 31l197 28 127-39z"/><path stroke="#7B7B7B" fill="#7B7B7B" d="M855 334l71 75 40-95z"/><path stroke="#838383" fill="#838383" d="M928 948l-118 65 155 10z"/><path stroke="gray" fill="gray" d="M810 1013l72 80 83-70z"/><path stroke="#7A7A7A" fill="#7A7A7A" d="M882 1093l-54 57 55 59z"/><path stroke="#737373" fill="#737373" d="M774 294l81 40 54-199z"/><path stroke="#707070" fill="#707070" d="M742 186l32 108 135-159z"/><path stroke="#8D8D8D" fill="#8D8D8D" d="M900 639L770 748l152 40z"/><path stroke="gray" fill="gray" d="M831 482l37 44 58-117z"/><path stroke="#898989" fill="#898989" d="M823 899l105 49 13-102z"/><path stroke="#8C8C8C" fill="#8C8C8C" d="M922 788l-99 111 118-53z"/><path stroke="#6C6C6C" fill="#6C6C6C" d="M767 20l142 115 32-47z"/><path stroke="#5F5F5F" fill="#5F5F5F" d="M542 1468l-84-5 179 30z"/><path stroke="#848484" fill="#848484" d="M823 899l-13 114 118-65z"/><path stroke="#7A7A7A" fill="#7A7A7A" d="M855 334l-78 65 149 10z"/><path stroke="#7D7D7D" fill="#7D7D7D" d="M777 399l54 83 95-73z"/><path stroke="#858585" fill="#858585" d="M868 526l-68 71 100 42z"/><path stroke="#8B8B8B" fill="#8B8B8B" d="M770 748l53 151 99-111z"/><path stroke="#6B6B6B" fill="#6B6B6B" d="M811 1413l-31 18 108-4z"/><path stroke="#888" fill="#888" d="M800 597l-30 151 130-109z"/><path stroke="#6B6B6B" fill="#6B6B6B" d="M767 20l-25 166 167-51z"/><path stroke="#6E6E6E" fill="#6E6E6E" d="M817 1284l-6 129 56-9z"/><path stroke="#6C6C6C" fill="#6C6C6C" d="M867 1404l-56 9 77 14z"/><path stroke="#767676" fill="#767676" d="M828 1150l-11 134 66-75z"/><path stroke="#7D7D7D" fill="#7D7D7D" d="M810 1013l18 137 54-57z"/><path stroke="#828282" fill="#828282" d="M831 482l-31 115 68-71z"/><path stroke="#767676" fill="#767676" d="M774 294l3 105 78-65z"/><path stroke="#868686" fill="#868686" d="M663 659l107 89 30-151z"/><path stroke="#6D6D6D" fill="#6D6D6D" d="M709 1385l102 28 6-129z"/><path stroke="#828282" fill="#828282" d="M690 900l120 113 13-114z"/><path stroke="#868686" fill="#868686" d="M770 748l-80 152 133-1z"/><path stroke="#737373" fill="#737373" d="M616 1204l201 80 11-134z"/><path stroke="#757575" fill="#757575" d="M681 1091l-65 113 212-54z"/><path stroke="#7A7A7A" fill="#7A7A7A" d="M810 1013l-129 78 147 59z"/><path stroke="gray" fill="gray" d="M611 565l189 32 31-115z"/><path stroke="#7C7C7C" fill="#7C7C7C" d="M777 399L611 565l220-83z"/><path stroke="#6A6A6A" fill="#6A6A6A" d="M709 1385l71 46 31-18z"/><path stroke="#535353" fill="#535353" d="M129 1474l-62 23 275-43z"/><path stroke="#6E6E6E" fill="#6E6E6E" d="M616 1204l93 181 108-101z"/><path stroke="#676767" fill="#676767" d="M640 59l102 127 25-166z"/><path stroke="#787878" fill="#787878" d="M628 389l-17 176 166-166z"/><path stroke="#7E7E7E" fill="#7E7E7E" d="M690 900l-52 129 172-16z"/><path stroke="#7A7A7A" fill="#7A7A7A" d="M638 1029l43 62 129-78z"/><path stroke="#818181" fill="#818181" d="M611 565l52 94 137-62z"/><path stroke="#6B6B6B" fill="#6B6B6B" d="M616 1204l-36 85 129 96z"/><path stroke="#676767" fill="#676767" d="M640 59l-2 94 104 33z"/><path stroke="#888" fill="#888" d="M609 716l81 184 80-152z"/><path stroke="#6F6F6F" fill="#6F6F6F" d="M742 186l-110 81 142 27z"/><path stroke="#717171" fill="#717171" d="M632 267l-4 122 146-95z"/><path stroke="#757575" fill="#757575" d="M774 294l-146 95 149 10z"/><path stroke="#666" fill="#666" d="M709 1385l-72 108 143-62z"/><path stroke="#5F5F5F" fill="#5F5F5F" d="M443 31l105 40 92-12z"/><path stroke="#868686" fill="#868686" d="M663 659l-54 57 161 32z"/><path stroke="#838383" fill="#838383" d="M609 716l-40 163 121 21z"/><path stroke="#6B6B6B" fill="#6B6B6B" d="M638 153l-6 114 110-81z"/><path stroke="#787878" fill="#787878" d="M567 541l44 24 17-176z"/><path stroke="#646464" fill="#646464" d="M556 1396l81 97 72-108z"/><path stroke="#676767" fill="#676767" d="M580 1289l-24 107 153-11z"/><path stroke="#7E7E7E" fill="#7E7E7E" d="M569 879l69 150 52-129z"/><path stroke="#757575" fill="#757575" d="M638 1029l-125 106 168-44z"/><path stroke="#727272" fill="#727272" d="M513 1135l103 69 65-113z"/><path stroke="#7F7F7F" fill="#7F7F7F" d="M504 642l105 74 2-151z"/><path stroke="#747474" fill="#747474" d="M571 374l-4 167 61-152z"/><path stroke="#707070" fill="#707070" d="M571 374l57 15 4-122z"/><path stroke="#7A7A7A" fill="#7A7A7A" d="M569 879l-66 76 135 74z"/><path stroke="#818181" fill="#818181" d="M611 565l-2 151 54-57z"/><path stroke="#848484" fill="#848484" d="M492 715l77 164 40-163z"/><path stroke="#686868" fill="#686868" d="M522 117l-38 171 148-21z"/><path stroke="#616161" fill="#616161" d="M556 1396l-14 72 95 25z"/><path stroke="#676767" fill="#676767" d="M522 117l110 150 6-114z"/><path stroke="#636363" fill="#636363" d="M548 71l-26 46 116 36z"/><path stroke="#636363" fill="#636363" d="M548 71l90 82 2-94z"/><path stroke="#6D6D6D" fill="#6D6D6D" d="M484 288l87 86 61-107z"/><path stroke="#737373" fill="#737373" d="M449 1035l64 100 125-106z"/><path stroke="#767676" fill="#767676" d="M503 955l-54 80 189-6z"/><path stroke="#7B7B7B" fill="#7B7B7B" d="M567 541l-63 101 107-77z"/><path stroke="#6D6D6D" fill="#6D6D6D" d="M513 1135l67 154 36-85z"/><path stroke="#757575" fill="#757575" d="M443 521l124 20 4-167z"/><path stroke="gray" fill="gray" d="M504 642l-12 73 117 1zM492 715l-85 117 162 47z"/><path stroke="#707070" fill="#707070" d="M404 400l39 121 128-147z"/><path stroke="#6C6C6C" fill="#6C6C6C" d="M513 1135l-59 3 126 151z"/><path stroke="#696969" fill="#696969" d="M454 1138l-91 72 217 79z"/><path stroke="#636363" fill="#636363" d="M378 1385l178 11 24-107z"/><path stroke="#646464" fill="#646464" d="M363 1210l15 175 202-96z"/><path stroke="#7A7A7A" fill="#7A7A7A" d="M430 586l74 56 63-101z"/><path stroke="#767676" fill="#767676" d="M443 521l-13 65 137-45z"/><path stroke="#6D6D6D" fill="#6D6D6D" d="M484 288l-80 112 167-26z"/><path stroke="#7B7B7B" fill="#7B7B7B" d="M407 832l96 123 66-76z"/><path stroke="#636363" fill="#636363" d="M379 157l105 131 38-171z"/><path stroke="#5F5F5F" fill="#5F5F5F" d="M458 1463l84 5 14-72z"/><path stroke="#5F5F5F" fill="#5F5F5F" d="M378 1385l80 78 98-67zM443 31l79 86 26-46z"/><path stroke="gray" fill="gray" d="M381 767l26 65 85-117z"/><path stroke="#6F6F6F" fill="#6F6F6F" d="M449 1035l5 103 59-3z"/><path stroke="#5E5E5E" fill="#5E5E5E" d="M443 31l-64 126 143-40z"/><path stroke="#696969" fill="#696969" d="M369 326l35 74 80-112z"/><path stroke="#787878" fill="#787878" d="M407 832l-82 76 178 47z"/><path stroke="#7C7C7C" fill="#7C7C7C" d="M430 586l62 129 12-73z"/><path stroke="#757575" fill="#757575" d="M325 908l124 127 54-80z"/><path stroke="#797979" fill="#797979" d="M314 651l67 116 49-181z"/><path stroke="#656565" fill="#656565" d="M379 157l-10 169 115-38z"/><path stroke="#7C7C7C" fill="#7C7C7C" d="M430 586l-49 181 111-52z"/><path stroke="#626262" fill="#626262" d="M363 1210l-62 61 77 114z"/><path stroke="#727272" fill="#727272" d="M325 908l-39 63 163 64z"/><path stroke="#6D6D6D" fill="#6D6D6D" d="M449 1035l-207 57 212 46z"/><path stroke="#696969" fill="#696969" d="M242 1092l121 118 91-72z"/><path stroke="#5C5C5C" fill="#5C5C5C" d="M378 1385l-36 69 116 9z"/><path stroke="#6E6E6E" fill="#6E6E6E" d="M404 400l-95 29 134 92zM286 971l-44 121 207-57z"/><path stroke="#626262" fill="#626262" d="M274 232l95 94 10-169z"/><path stroke="#5A5A5A" fill="#5A5A5A" d="M266 3l113 154 64-126z"/><path stroke="#6F6F6F" fill="#6F6F6F" d="M309 429l-24 91 158 1z"/><path stroke="#737373" fill="#737373" d="M285 520l145 66 13-65z"/><path stroke="#5E5E5E" fill="#5E5E5E" d="M301 1271l9 93 68 21z"/><path stroke="#747474" fill="#747474" d="M285 520l29 131 116-65z"/><path stroke="#5A5A5A" fill="#5A5A5A" d="M266 3l14 155 99-1z"/><path stroke="#7A7A7A" fill="#7A7A7A" d="M381 767l-56 141 82-76z"/><path stroke="#6A6A6A" fill="#6A6A6A" d="M369 326l-60 103 95-29z"/><path stroke="#5C5C5C" fill="#5C5C5C" d="M310 1364l32 90 36-69z"/><path stroke="#5E5E5E" fill="#5E5E5E" d="M280 158l-6 74 105-75z"/><path stroke="#797979" fill="#797979" d="M314 651l-70 57 137 59z"/><path stroke="#787878" fill="#787878" d="M219 792l106 116 56-141z"/><path stroke="#7B7B7B" fill="#7B7B7B" d="M244 708l-25 84 162-25z"/><path stroke="#666" fill="#666" d="M274 232l35 197 60-103z"/><path stroke="#656565" fill="#656565" d="M242 1092l59 179 62-61z"/><path stroke="#575757" fill="#575757" d="M266 3l-63 87 77 68z"/><path stroke="#626262" fill="#626262" d="M274 232l-117 40 152 157z"/><path stroke="#636363" fill="#636363" d="M157 272l-15 111 167 46z"/><path stroke="#727272" fill="#727272" d="M285 520l-77 93 106 38z"/><path stroke="#757575" fill="#757575" d="M219 792l-34 51 140 65z"/><path stroke="#585858" fill="#585858" d="M310 1364l-181 110 213-20z"/><path stroke="#646464" fill="#646464" d="M242 1092l-73 20 132 159z"/><path stroke="#616161" fill="#616161" d="M169 1112l-13 159h145z"/><path stroke="#737373" fill="#737373" d="M185 843l101 128 39-63z"/><path stroke="#5D5D5D" fill="#5D5D5D" d="M301 1271l-123 39 132 54z"/><path stroke="#585858" fill="#585858" d="M178 1310l-49 164 181-110z"/><path stroke="#757575" fill="#757575" d="M208 613l36 95 70-57z"/><path stroke="#585858" fill="#585858" d="M203 90v36l77 32z"/><path stroke="#696969" fill="#696969" d="M142 383l143 137 24-91z"/><path stroke="#6A6A6A" fill="#6A6A6A" d="M142 383l25 164 118-27z"/><path stroke="#5D5D5D" fill="#5D5D5D" d="M156 1271l22 39 123-39z"/><path stroke="#5B5B5B" fill="#5B5B5B" d="M203 126l71 106 6-74z"/><path stroke="#6E6E6E" fill="#6E6E6E" d="M167 547l41 66 77-93z"/><path stroke="#6A6A6A" fill="#6A6A6A" d="M121 1043l121 49 44-121z"/><path stroke="#6E6E6E" fill="#6E6E6E" d="M185 843l-64 200 165-72z"/><path stroke="#5C5C5C" fill="#5C5C5C" d="M203 126l-46 146 117-40z"/><path stroke="#535353" fill="#535353" d="M108 11l95 79 63-87z"/><path stroke="#565656" fill="#565656" d="M100 1335l29 139 49-164z"/><path stroke="#676767" fill="#676767" d="M121 1043l48 69 73-20z"/><path stroke="#767676" fill="#767676" d="M109 664l110 128 25-84z"/><path stroke="#727272" fill="#727272" d="M208 613l-99 51 135 44z"/><path stroke="#6D6D6D" fill="#6D6D6D" d="M36 862l85 181 64-200z"/><path stroke="#5B5B5B" fill="#5B5B5B" d="M82 270l75 2 46-146z"/><path stroke="#737373" fill="#737373" d="M27 793l158 50 34-51z"/><path stroke="#757575" fill="#757575" d="M109 664L27 793l192-1z"/><path stroke="#606060" fill="#606060" d="M51 1160l105 111 13-159z"/><path stroke="#565656" fill="#565656" d="M5 121l77 149 121-144z"/><path stroke="#6F6F6F" fill="#6F6F6F" d="M167 547l-58 117 99-51z"/><path stroke="#666" fill="#666" d="M142 383L14 481l153 66z"/><path stroke="#525252" fill="#525252" d="M108 11L5 121l198 5z"/><path stroke="#545454" fill="#545454" d="M108 11l95 115V90z"/><path stroke="#707070" fill="#707070" d="M27 793l9 69 149-19z"/><path stroke="#686868" fill="#686868" d="M36 862l-24 161 109 20z"/><path stroke="#5C5C5C" fill="#5C5C5C" d="M51 1160l-14 88 119 23z"/><path stroke="#5E5E5E" fill="#5E5E5E" d="M82 270l60 113 15-111z"/><path stroke="#5A5A5A" fill="#5A5A5A" d="M156 1271l-56 64 78-25z"/><path stroke="#6A6A6A" fill="#6A6A6A" d="M14 481l95 183 58-117z"/><path stroke="#636363" fill="#636363" d="M121 1043l-70 117 118-48zM2 444l12 37 128-98z"/><path stroke="#595959" fill="#595959" d="M37 1248l63 87 56-64z"/><path stroke="#525252" fill="#525252" d="M100 1335l-33 162 62-23z"/><path stroke="#606060" fill="#606060" d="M82 270L2 444l140-61z"/><path stroke="#636363" fill="#636363" d="M12 1023l39 137 70-117z"/><path stroke="#6D6D6D" fill="#6D6D6D" d="M14 481l13 312 82-129z"/><path stroke="#555" fill="#555" d="M37 1248l30 249 33-162z"/><path stroke="#5A5A5A" fill="#5A5A5A" d="M5 121L2 444l80-174z"/><path stroke="#5F5F5F" fill="#5F5F5F" d="M12 1023l25 225 14-88z"/><path stroke="#686868" fill="#686868" d="M14 481L2 444l25 349z"/><path stroke="#6B6B6B" fill="#6B6B6B" d="M27 793l-15 230 24-161z"/><path stroke="#717171" fill="#717171" d="M2 444l10 579 15-230z"/></g></svg>